<?xml version="1.0" standalone="no"?>
<!DOCTYPE svg PUBLIC "-//W3C//DTD SVG 20010904//EN"
 "http://www.w3.org/TR/2001/REC-SVG-20010904/DTD/svg10.dtd">
<svg version="1.0" xmlns="http://www.w3.org/2000/svg"
 width="1280.000000pt" height="876.000000pt" viewBox="0 0 1280.000000 876.000000"
 preserveAspectRatio="xMidYMid meet">
<g transform="translate(0.000000,876.000000) scale(0.100000,-0.100000)">
<path fill="#a69150" stroke="#000000" d="M2367 8739 c-15 -11 -45 -56 -68 -100 -69 -133 -108 -151 -226 -103
-117 46 -270 27 -392 -49 -79 -50 -167 -142 -201 -211 l-30 -59 -65 2 c-75 3
-159 -18 -225 -57 -25 -14 -99 -66 -165 -115 -137 -103 -214 -142 -311 -157
-38 -6 -69 -12 -69 -13 0 -1 -9 -20 -20 -41 -15 -30 -37 -49 -95 -81 -85 -48
-123 -93 -118 -140 6 -58 105 -81 288 -66 100 8 192 2 207 -13 12 -12 -12 -40
-62 -71 -26 -16 -65 -47 -87 -67 -33 -31 -39 -43 -36 -70 4 -48 51 -68 194
-81 l115 -10 32 30 c61 58 92 68 207 68 86 -1 128 -7 230 -34 131 -35 255 -66
304 -76 l29 -6 -28 -29 c-62 -65 -184 -77 -305 -31 -30 11 -56 18 -59 16 -2
-3 -4 -19 -4 -35 0 -63 67 -99 228 -121 47 -7 85 -16 85 -20 0 -12 -51 -37
-121 -59 -81 -25 -109 -52 -109 -104 l0 -41 163 0 c149 0 166 -2 215 -24 28
-13 66 -39 83 -58 25 -29 28 -37 17 -50 -23 -28 -76 -43 -197 -58 -184 -21
-199 -32 -256 -190 -13 -36 -37 -68 -86 -115 -92 -89 -95 -124 -20 -218 60
-75 66 -92 47 -131 -30 -56 -21 -106 41 -233 l57 -118 36 0 c21 0 51 5 69 11
51 18 43 76 -24 175 -30 44 -31 65 -7 87 26 23 42 21 42 -5 0 -31 24 -107 48
-154 11 -22 57 -81 101 -133 l81 -93 -29 -33 c-106 -121 -172 -332 -156 -497
7 -65 9 -71 52 -111 62 -58 86 -107 81 -168 -1 -27 -1 -49 1 -49 3 0 20 10 39
23 25 16 47 50 88 132 59 120 67 133 104 158 35 24 38 22 45 -27 12 -77 -20
-141 -99 -198 l-41 -29 3 -97 c4 -121 16 -168 52 -204 32 -32 66 -36 111 -12
17 8 32 14 33 12 1 -2 7 -15 14 -31 8 -18 30 -36 67 -53 54 -26 55 -26 87 -7
19 11 50 48 76 91 53 87 78 99 123 56 16 -15 39 -54 51 -86 17 -49 25 -58 45
-58 40 0 92 -27 172 -91 116 -94 177 -114 286 -95 l41 7 13 -63 c38 -187 98
-290 328 -565 64 -76 131 -162 151 -190 l35 -53 -44 -57 c-46 -59 -190 -192
-294 -271 -33 -25 -113 -88 -179 -140 -65 -52 -133 -98 -150 -103 -17 -5 -63
-29 -101 -54 -38 -25 -80 -48 -94 -52 -35 -8 -68 -40 -227 -220 -109 -123
-139 -164 -162 -220 -55 -134 -133 -225 -349 -407 -90 -76 -151 -137 -191
-191 -175 -235 -392 -434 -616 -565 -57 -34 -60 -37 -71 -90 -13 -66 -24 -87
-84 -162 l-46 -58 -68 0 c-37 0 -165 9 -285 21 -249 24 -393 21 -516 -11 -130
-33 -147 -45 -170 -115 -12 -39 -19 -91 -20 -151 -1 -84 1 -94 29 -139 22 -35
44 -55 79 -73 l50 -25 129 13 c151 16 207 10 442 -45 271 -63 416 -70 435 -21
14 39 89 156 167 264 79 108 123 142 182 142 26 0 72 46 389 388 372 401 633
664 809 816 56 48 107 85 112 81 26 -15 99 22 176 88 128 111 345 270 560 411
110 72 302 199 427 283 l227 152 36 -59 c86 -142 212 -291 478 -569 232 -242
344 -377 488 -592 132 -196 222 -298 306 -345 l51 -30 -34 -32 c-19 -18 -62
-76 -97 -130 -109 -168 -161 -199 -308 -189 -144 11 -258 -31 -614 -222 l-130
-70 -12 -48 c-18 -68 -16 -104 8 -167 18 -51 24 -57 62 -68 26 -8 99 -13 192
-13 143 0 156 2 290 39 286 79 329 87 486 89 110 2 150 6 163 16 27 22 51 77
80 180 46 160 69 191 142 191 67 0 120 35 192 126 36 46 70 84 76 84 24 0 206
-51 289 -80 48 -17 213 -87 365 -157 279 -126 440 -187 587 -220 63 -14 124
-18 288 -18 l207 -1 25 -36 c78 -116 325 -209 550 -208 82 1 205 21 258 43 34
15 37 19 37 54 0 49 22 136 56 215 l26 63 -69 65 c-120 111 -294 199 -473 237
-112 24 -402 25 -504 2 -68 -16 -68 -16 -96 8 -16 13 -50 33 -77 45 -55 25
-130 28 -378 14 -176 -10 -196 -6 -310 60 -44 26 -99 57 -121 70 -23 14 -84
33 -135 44 -52 11 -107 26 -123 32 -37 15 -86 56 -86 72 0 7 26 20 58 30 79
25 244 113 452 241 96 60 223 133 283 164 98 50 115 55 195 61 74 6 109 16
232 65 239 95 378 171 439 241 29 33 32 42 27 76 -4 22 -26 74 -51 116 -52 91
-105 240 -145 407 -43 180 -53 279 -48 468 l5 167 -23 0 c-22 0 -64 34 -64 52
0 14 34 26 107 37 39 6 78 14 86 17 10 3 20 -3 28 -18 25 -49 117 -134 183
-171 151 -83 262 -192 327 -321 21 -43 39 -84 39 -91 0 -18 123 -129 369 -333
l204 -170 66 -6 c98 -10 268 -50 494 -117 111 -32 254 -70 317 -84 176 -39
298 -113 457 -279 160 -166 257 -327 443 -735 61 -133 128 -295 150 -358 50
-144 91 -221 155 -291 124 -137 292 -200 595 -222 128 -10 146 -14 175 -36 18
-14 68 -36 111 -50 92 -30 111 -39 142 -67 20 -19 35 -21 180 -21 181 -1 243
12 329 71 124 84 121 221 -7 366 -77 86 -153 131 -262 157 -99 23 -172 55
-203 90 -34 38 -70 50 -149 50 -106 0 -166 -16 -296 -82 l-114 -58 -34 33
c-18 18 -47 57 -65 87 -30 50 -36 54 -97 72 -36 10 -75 18 -86 18 -25 0 -85
99 -208 347 -153 306 -237 550 -286 831 -21 119 -40 335 -40 452 0 63 -2 68
-38 103 l-39 38 -169 4 c-185 4 -291 19 -459 66 l-110 31 -120 145 c-139 169
-309 349 -387 412 l-55 44 -6 216 c-6 225 -10 263 -91 731 -19 113 -39 249
-45 302 -12 106 -13 358 -3 426 l7 44 45 -34 c181 -136 399 -244 935 -461 279
-113 448 -187 587 -258 79 -40 91 -51 145 -124 84 -112 172 -204 347 -362 83
-76 152 -140 152 -143 1 -3 7 -31 14 -63 16 -71 38 -76 75 -17 29 47 50 51 58
13 4 -17 20 -37 42 -51 19 -12 35 -26 35 -31 0 -5 -23 -14 -50 -21 -72 -17
-92 -58 -41 -80 34 -14 59 -8 115 28 64 40 101 26 271 -98 106 -78 151 -90
241 -65 19 6 20 3 16 -57 -3 -54 0 -68 20 -98 13 -19 33 -36 45 -38 34 -5 39
36 14 110 -26 75 -26 91 -4 110 35 29 49 27 98 -13 26 -22 53 -38 59 -36 23 7
17 38 -13 68 -36 35 -40 68 -11 94 32 29 24 42 -27 50 -70 10 -139 45 -217
109 -82 68 -109 82 -175 97 -50 10 -51 12 -117 112 -169 258 -340 440 -547
578 -88 59 -88 59 -164 59 -59 0 -81 4 -103 20 -15 11 -64 35 -109 55 -44 19
-98 46 -118 60 -25 16 -51 25 -78 25 -100 0 -268 57 -420 142 -44 24 -126 70
-183 102 -113 63 -201 99 -308 126 -72 18 -106 37 -284 164 -209 148 -406 325
-477 428 -55 79 -102 169 -182 348 -90 198 -156 295 -352 510 -137 151 -232
267 -254 311 -9 16 -22 29 -29 29 -8 0 -57 23 -109 50 -54 28 -116 53 -142 57
-45 6 -48 8 -100 88 -69 104 -173 209 -256 258 -80 47 -193 83 -307 98 l-89
12 -21 47 c-31 68 -99 140 -234 247 -104 82 -126 95 -190 113 -248 67 -644 73
-983 15 -77 -14 -152 -28 -167 -32 -64 -19 -465 -358 -693 -587 -244 -244
-417 -468 -544 -706 l-50 -95 -139 -87 c-144 -90 -309 -176 -422 -221 -66 -26
-233 -77 -253 -77 -22 0 -234 92 -272 118 -64 44 -98 102 -99 164 0 29 4 70 9
91 8 37 7 39 -69 114 l-76 77 34 80 c45 105 67 187 116 436 22 113 49 235 59
273 l20 67 -25 54 c-28 61 -40 137 -30 190 4 19 23 56 42 81 32 43 34 47 19
68 -21 29 -19 59 5 90 12 14 27 38 35 54 18 34 7 43 -56 43 -31 0 -55 7 -70
19 -23 19 -23 20 -6 39 11 11 36 24 58 27 23 4 45 16 54 28 14 20 13 22 -13
36 -40 21 -42 30 -21 84 11 27 17 58 14 68 -11 34 -75 19 -132 -31 -35 -31
-61 -37 -94 -20 -30 17 -25 76 11 133 17 26 30 53 30 60 0 21 -95 150 -143
195 -59 54 -102 62 -172 33 -28 -12 -59 -19 -68 -15 -9 3 -31 30 -48 60 -37
65 -62 84 -111 84 -43 0 -61 -16 -89 -76 -40 -84 -89 -68 -89 30 0 85 -7 103
-42 115 -47 16 -82 13 -111 -10z m-407 -1643 c0 -13 -6 -29 -14 -35 -18 -15
-112 -26 -119 -14 -10 16 22 52 56 62 58 17 77 14 77 -13z m-218 -663 c-11
-16 -40 -68 -65 -118 -46 -92 -89 -145 -139 -171 -33 -17 -34 -13 -14 61 38
145 129 255 209 255 l28 0 -19 -27z m226 -1075 c20 -20 14 -65 -14 -97 -41
-49 -57 -42 -52 23 6 74 34 106 66 74z m262 -8 c0 -24 -34 -43 -60 -35 -13 4
-20 15 -20 31 0 21 4 24 40 24 33 0 40 -3 40 -20z m-331 -243 c8 -61 -4 -196
-20 -212 -6 -6 -17 -2 -30 11 -36 37 -36 161 1 259 10 25 12 27 26 13 8 -8 19
-40 23 -71z m373 -274 c32 -29 17 -103 -22 -103 -22 0 -40 28 -40 60 0 27 17
60 32 60 6 0 20 -7 30 -17z m102 -184 c4 -23 4 -93 0 -155 -6 -99 -9 -114 -24
-114 -55 0 -84 75 -69 174 19 118 27 136 58 136 26 0 29 -4 35 -41z m-184
-174 c0 -53 -39 -44 -53 13 -4 19 -1 22 24 22 26 0 29 -3 29 -35z m4594 -1128
c16 -28 81 -133 145 -232 212 -331 276 -445 316 -560 23 -65 31 -220 15 -271
-19 -58 -88 -150 -172 -230 -90 -85 -146 -124 -338 -234 -80 -46 -197 -115
-260 -154 -259 -162 -403 -235 -474 -243 -38 -5 -47 -1 -81 28 -21 19 -75 90
-121 159 -114 174 -158 217 -232 229 l-37 6 -81 180 c-164 366 -340 709 -475
928 -31 50 -44 79 -36 82 6 2 131 8 277 14 146 7 333 16 415 22 521 35 854
124 1041 279 33 27 61 49 64 49 3 1 18 -23 34 -52z"/>
</g>
</svg>
