<svg version="1.0" xmlns="http://www.w3.org/2000/svg" preserveAspectRatio="xMidYMid meet" viewBox="231.25 337.52 282.27 198.48">

<g transform="translate(0.000000,536.000000) scale(0.100000,-0.100000)" fill="#000000" stroke="#000000">
<path d="M3530 1977 c-25 -7 -52 -17 -61 -22 -40 -23 -319 -279 -344 -315 -15 -22 -29 -40 -31 -40 -1 0 -29 28 -61 61 -82 88 -135 119 -197 119 -32 0 -62 -7 -81 -19 -16 -10 -99 -82 -183 -161 -168 -158 -195 -197 -225 -335 -59 -266 -41 -590 46 -809 46 -118 83 -168 134 -184 32 -10 69 -42 162 -138 68 -68 133 -127 147 -130 43 -11 87 3 125 37 19 19 85 78 147 133 l111 99 22 96 c13 53 26 100 30 105 12 13 95 -20 149 -59 29 -21 85 -84 133 -148 94 -125 184 -214 249 -246 32 -15 63 -21 114 -21 l69 0 60 56 c33 32 101 93 150 137 50 44 96 94 103 111 8 21 10 61 7 129 l-6 98 48 53 c26 29 98 97 160 150 62 53 126 116 142 140 33 47 71 150 71 193 1 32 35 77 65 87 11 4 87 71 169 150 l149 143 -7 50 c-5 41 -3 52 9 57 25 9 38 55 25 87 -45 109 -282 209 -495 209 -71 0 -73 0 -85 30 -25 61 -82 84 -147 59 -15 -6 -68 -49 -118 -97 -49 -48 -120 -114 -156 -147 -36 -33 -68 -67 -71 -75 -7 -23 -30 0 -123 125 -45 61 -101 127 -125 149 -82 74 -194 107 -280 83z m-1604 -164 c29 -11 122 -96 166 -152 l29 -36 -20 -35 c-11 -18 -32 -83 -46 -143 -15 -60 -31 -115 -37 -121 -5 -7 -27 -13 -49 -13 -37 0 -46 6 -154 119 -128 133 -164 156 -232 148 l-46 -5 99 94 c160 150 209 175 290 144z"/>
</g>
</svg>
